<?xml version="1.0" encoding="UTF-8"?>
<svg width="56px" height="54px" viewBox="0 0 56 54" version="1.1" xmlns="http://www.w3.org/2000/svg" xmlns:xlink="http://www.w3.org/1999/xlink">
    <!-- Generator: Sketch 64 (93537) - https://sketch.com -->
    <title>first-feature-icon 2</title>
    <desc>Created with Sketch.</desc>
    <g id="Page-1" stroke="none" stroke-width="1" fill="none" fill-rule="evenodd">
        <g id="first-feature-icon" transform="translate(1.000000, 1.000000)">
            <path d="M0.5,16.5 L53.5,16.5 L53.5,2 C53.5,1.17157288 52.8284271,0.5 52,0.5 L2,0.5 C1.17157288,0.5 0.5,1.17157288 0.5,2 L0.5,16.5 Z" id="path" stroke="#02B4E5" stroke-width="3"></path>
            <path d="M0.5,16.5 L0.5,50 C0.5,50.8284271 1.17157288,51.5 2,51.5 L52,51.5 C52.8284271,51.5 53.5,50.8284271 53.5,50 L53.5,16.5 L0.5,16.5 Z" id="path" stroke="#02B4E5" stroke-width="3"></path>
            <rect id="path" fill="#02B4E5" fill-rule="nonzero" opacity="0.3" x="17" y="2" width="35" height="13"></rect>
            <rect id="path" fill="#02B4E5" fill-rule="nonzero" x="14" y="1" width="3" height="16"></rect>
        </g>
        <g id="cubes" transform="translate(15.000000, 23.000000)" fill="#02B4E5" fill-rule="nonzero">
            <path d="M24.43,10.96 L19.6,9.15 L19.6,3.725 C19.6,2.975 19.135,2.305 18.43,2.04 L13.43,0.165 C13.025,0.01 12.575,0.01 12.165,0.165 L7.165,2.04 C6.46,2.305 5.995,2.975 5.995,3.725 L5.995,9.15 L1.165,10.96 C0.465,11.225 0,11.895 0,12.645 L0,18.15 C0,18.83 0.385,19.455 0.995,19.76 L5.995,22.26 C6.5,22.515 7.1,22.515 7.605,22.26 L12.8,19.66 L17.995,22.26 C18.5,22.515 19.1,22.515 19.605,22.26 L24.605,19.76 C25.215,19.455 25.6,18.83 25.6,18.15 L25.6,12.645 C25.6,11.895 25.135,11.225 24.43,10.96 Z M17.9,9.19 L13.65,10.785 L13.65,7.375 L17.9,5.525 L17.9,9.19 Z M7.7,3.655 L12.8,1.745 L17.9,3.655 L17.9,3.685 L12.8,5.755 L7.7,3.685 L7.7,3.655 Z M11.9,18.21 L7.65,20.335 L7.65,16.38 L11.9,14.44 L11.9,18.21 Z M11.9,12.61 L6.8,14.68 L1.7,12.61 L1.7,12.58 L6.8,10.67 L11.9,12.58 L11.9,12.61 Z M23.9,18.21 L19.65,20.335 L19.65,16.38 L23.9,14.44 L23.9,18.21 Z M23.9,12.61 L18.8,14.68 L13.7,12.61 L13.7,12.58 L18.8,10.67 L23.9,12.58 L23.9,12.61 Z" id="Shape"></path>
        </g>
    </g>
</svg>
