<?xml version="1.0" encoding="UTF-8"?>
<svg width="36px" height="36px" viewBox="0 0 36 36" version="1.1" xmlns="http://www.w3.org/2000/svg" xmlns:xlink="http://www.w3.org/1999/xlink">
    <!-- Generator: Sketch 64 (93537) - https://sketch.com -->
    <title>Ξ</title>
    <desc>Created with Sketch.</desc>
    <g id="Page-1" stroke="none" stroke-width="1" fill="none" fill-rule="evenodd">
        <g id="Ξ" transform="translate(-0.022000, 0.249000)" style=" stroke:none;fill-rule:evenodd;fill:rgb(100%,100%,100%);fill-opacity:1;">
            <path d="M3.927,7.956 C4.471,6.426 5.984,5.661 8.466,5.661 L8.466,5.661 L22.899,5.661 L23.97,0 L7.395,0 C5.389,0 3.791,0.425 2.601,1.275 C1.411,2.125 0.544,3.502 -1.77635684e-15,5.406 L-1.77635684e-15,5.406 L3.927,7.956 Z M19.941,20.043 L19.941,14.688 L6.477,14.688 L6.477,20.043 L19.941,20.043 Z M18.564,35.751 C20.57,35.751 22.168,35.326 23.358,34.476 C24.548,33.626 25.415,32.249 25.959,30.345 L25.959,30.345 L21.267,27.744 C20.893,28.866 20.349,29.6225 19.635,30.0135 C18.921,30.4045 17.884,30.6 16.524,30.6 L16.524,30.6 L3.57,30.6 L1.989,35.751 L18.564,35.751 Z"></path>
        </g>
    </g>
</svg>
